<svg xmlns="http://www.w3.org/2000/svg" xmlns:xlink="http://www.w3.org/1999/xlink" viewBox="0 0 930.25 701.5"><defs><style>.cls-1,.cls-3,.cls-4,.cls-5,.cls-6,.cls-7,.cls-8{opacity:0.75;}.cls-2{fill:#fef7e7;}.cls-3{fill:url(#Безымянный_градиент_4);}.cls-4{fill:url(#Безымянный_градиент_11);}.cls-5{fill:url(#Безымянный_градиент_4-2);}.cls-6{fill:url(#Безымянный_градиент_10);}.cls-7{fill:url(#Безымянный_градиент_11-2);}.cls-8{fill:url(#Безымянный_градиент_10-2);}.cls-9{opacity:0.5;fill:url(#Безымянный_градиент_3);}</style><linearGradient id="Безымянный_градиент_4" x1="26.69" y1="339.31" x2="819.69" y2="339.31" gradientUnits="userSpaceOnUse"><stop offset="0" stop-color="#fef7e7"/><stop offset="1" stop-color="#fceecb"/></linearGradient><linearGradient id="Безымянный_градиент_11" x1="400.04" y1="686.52" x2="453.96" y2="632.6" gradientUnits="userSpaceOnUse"><stop offset="0" stop-color="#374c5f"/><stop offset="1" stop-color="#4d6071"/></linearGradient><linearGradient id="Безымянный_градиент_4-2" x1="832.63" y1="585.63" x2="913.5" y2="504.75" xlink:href="#Безымянный_градиент_4"/><linearGradient id="Безымянный_градиент_10" x1="203.84" y1="51.6" x2="230.79" y2="24.65" gradientUnits="userSpaceOnUse"><stop offset="0" stop-color="#4d6071"/><stop offset="1" stop-color="#374c5f"/></linearGradient><linearGradient id="Безымянный_градиент_11-2" x1="-4193.63" y1="379.31" x2="-3400.63" y2="379.31" gradientTransform="translate(-3316.76 741.5) rotate(180)" xlink:href="#Безымянный_градиент_11"/><linearGradient id="Безымянный_градиент_10-2" x1="122" y1="411.75" x2="808.25" y2="411.75" xlink:href="#Безымянный_градиент_10"/><linearGradient id="Безымянный_градиент_3" x1="182.46" y1="564.79" x2="290.29" y2="456.96" gradientUnits="userSpaceOnUse"><stop offset="0" stop-color="#fceecb"/><stop offset="1" stop-color="#fef7e7"/></linearGradient></defs><g id="Ebene_2" data-name="Ebene 2"><g id="_Layer_" data-name="&lt;Layer&gt;"><g class="cls-1"><path class="cls-2" d="M529.63,1.53c42.24,0,86.11,5.06,130.41,15.06,77.88,17.57,139.73,58.39,178.85,118,34.51,52.61,49.54,117.16,42.35,181.78-6.31,56.54-29.43,108.17-65.11,145.38-39.2,40.88-91.26,62.48-150.56,62.48-5.55,0-11.24-.19-16.91-.57-16.7-1.11-32.91-1.67-48.2-1.67C445.13,522,378.54,578.48,294.22,650l-6.59,5.59C253.8,684.2,211.69,700,169.07,700a165.18,165.18,0,0,1-80.38-20.55,160.8,160.8,0,0,1-61.14-61.07C5,578.77-3.1,527.59,4.15,470.35c8.42-66.46,36.75-140.8,84.22-221,.36-.62,36.67-62.64,108.94-123.91,42.44-36,88.79-64.66,137.74-85.23C396.23,14.56,461.7,1.53,529.63,1.53Zm0-1.53C230.92,0,87.05,248.63,87.05,248.63-88.6,545.25,34.18,701.5,169.07,701.5c41.48,0,84.1-14.78,119.55-44.79,86.73-73.44,153-133.17,311.84-133.17q22.72,0,48.1,1.68c5.77.38,11.43.57,17,.57,268.86,0,315.94-438.23-5.19-510.69C613.89,4.61,570.34,0,529.63,0Z"/></g><path class="cls-3" d="M104.73,246.07S271.24-47,618.75,32.85c293.88,67.53,243.82,483-10.59,465.76-174.31-11.83-237.53,46.61-322.71,120.06C150.33,735.18-101.17,600.18,104.73,246.07Z"/><circle class="cls-4" cx="427" cy="659.56" r="38.13"/><circle class="cls-5" cx="873.06" cy="545.19" r="57.19"/><circle class="cls-6" cx="217.31" cy="38.13" r="19.06"/><path class="cls-7" d="M163.81,212.3C97.72,293.9,70.63,413.53,90,517.74c23.13,124.33,173.88,165.33,281.65,71S534,501,652.14,510.28c106.19,8.36,184.39-26.58,214.25-89s-4.25-145.77-100-137.34C685.9,291,618.38,249.78,591.11,170c-25.9-75.74-118-92.31-186.85-84.34S235.54,123.73,163.81,212.3Z"/><path class="cls-8" d="M345.43,206C118.14,285,18.92,530.74,267.52,551.23,484.1,569.07,540,673.36,655.91,658c154-20.36,152.06-236.22,152.28-236.26C812.47,151.38,589.92,121.05,345.43,206Z"/><circle class="cls-9" cx="236.38" cy="510.88" r="76.25"/></g></g></svg>