<svg xmlns="http://www.w3.org/2000/svg" xmlns:xlink="http://www.w3.org/1999/xlink" viewBox="0 0 892.13 671"><defs><style>.cls-1,.cls-3,.cls-4,.cls-5,.cls-7,.cls-9{opacity:0.75;}.cls-2{fill:#fef7e7;}.cls-3{fill:url(#Безымянный_градиент_6);}.cls-4{fill:url(#Безымянный_градиент_7);}.cls-5{fill:url(#Безымянный_градиент_5);}.cls-6,.cls-8{opacity:0.5;}.cls-6{fill:url(#Безымянный_градиент_8);}.cls-7{fill:url(#Безымянный_градиент_7-2);}.cls-8{fill:url(#Безымянный_градиент_6-2);}.cls-9{fill:url(#Безымянный_градиент_5-2);}</style><linearGradient id="Безымянный_градиент_6" x1="25.08" y1="-1249.25" x2="863.83" y2="-1249.25" gradientTransform="translate(890.52 -929) rotate(180)" gradientUnits="userSpaceOnUse"><stop offset="0" stop-color="#fef7e7"/><stop offset="1" stop-color="#fceecb"/></linearGradient><linearGradient id="Безымянный_градиент_7" x1="97.51" y1="-1325.5" x2="890.52" y2="-1325.5" gradientTransform="translate(890.52 -929) rotate(180)" gradientUnits="userSpaceOnUse"><stop offset="0" stop-color="#ef7e73"/><stop offset="1" stop-color="#f18c82"/></linearGradient><linearGradient id="Безымянный_градиент_5" x1="44.14" y1="-1237.81" x2="776.14" y2="-1237.81" gradientTransform="translate(890.52 -929) rotate(180)" gradientUnits="userSpaceOnUse"><stop offset="0" stop-color="#f18c82"/><stop offset="1" stop-color="#ef7e73"/></linearGradient><linearGradient id="Безымянный_градиент_8" x1="150.35" y1="-1077.15" x2="258.18" y2="-1184.98" gradientTransform="translate(890.52 -929) rotate(180)" gradientUnits="userSpaceOnUse"><stop offset="0" stop-color="#fceecb"/><stop offset="1" stop-color="#fef7e7"/></linearGradient><linearGradient id="Безымянный_градиент_7-2" x1="384.79" y1="90.86" x2="438.71" y2="36.94" gradientTransform="matrix(1, 0, 0, 1, 0, 0)" xlink:href="#Безымянный_градиент_7"/><linearGradient id="Безымянный_градиент_6-2" x1="564.25" y1="556.62" x2="678.62" y2="556.62" gradientTransform="matrix(1, 0, 0, 1, 0, 0)" xlink:href="#Безымянный_градиент_6"/><linearGradient id="Безымянный_градиент_5-2" x1="70.4" y1="596.79" x2="97.35" y2="569.83" gradientTransform="matrix(1, 0, 0, 1, 0, 0)" xlink:href="#Безымянный_градиент_5"/></defs><g id="Ebene_2" data-name="Ebene 2"><g id="_Layer_" data-name="&lt;Layer&gt;"><g class="cls-1"><path class="cls-2" d="M168.05,65.43c48.17,0,102.08,19.51,164.82,59.66,46.79,29.93,83.51,48.48,122,48.48,27.53,0,55.26-10,84.77-30.45,5.71-4,11.47-8.15,17.56-12.57,19-13.76,40.41-29.34,64.9-41.17,28-13.53,55.78-20.11,84.88-20.1a222.1,222.1,0,0,1,59.54,8.6c49.47,13.81,86.41,43.61,106.83,86.18,16.38,34.15,21.46,75.22,14,112.69-14.52,72.46-45.16,131-99.36,189.83-69.16,75.05-162.11,124.73-261.73,139.88a450.84,450.84,0,0,1-67.42,4.92c-49.81,0-102.82-7.69-153.29-22.23-51.36-14.8-100.34-36.81-141.65-63.64-26.9-17.47-65.7-48-97.78-94.35C33.22,383.78,14.29,330,9.78,271.43A215,215,0,0,1,44.14,137.58c24.24-36.94,57.69-62.09,91.79-69a162.22,162.22,0,0,1,32.12-3.15Zm0-1.53a162.63,162.63,0,0,0-32.42,3.18C65.87,81.22.48,170.55,8.26,271.54,18.29,401.79,97.37,484.17,163,526.79c85.25,55.38,195,86.11,295.77,86.11A450.39,450.39,0,0,0,526.4,608C620,593.74,715.08,547.86,789,467.61c58.92-63.94,86.37-123.87,99.74-190.56S878.48,107.56,766.89,76.41a222.34,222.34,0,0,0-59.95-8.66c-76.12,0-125.92,44.75-168.21,74.11-30.51,21.19-57.53,30.19-83.9,30.19-38.78,0-76.15-19.47-121.13-48.25C272.11,84.39,217.06,63.9,168.05,63.9Z"/></g><path class="cls-3" d="M46.18,438.87C100,558,201.21,609,276.34,627c120.05,28.87,261.46,10.23,363.09-45.67,81.47-44.81,153.51-119.91,194.25-220.24,32.46-79.94,37.27-145.54,26.77-212.77S792.93-7.64,679.31.53,527.16,86.81,491.21,138.72c-51.63,74.57-109.08,72-195.35,51.86S142.14,173.84,93.69,203.74C34.16,240.46,4.42,346.46,46.18,438.87Z"/><path class="cls-4" d="M126.86,422.77c101.41-15.53,174,3.63,214.24,70.72,45.08,75.08,61.17,139.69,148.32,168.64C598.89,698.5,736.49,621.05,779.52,466c21.24-76.54,26-188.1-51.25-276.79-56.69-65.13-161.94-83.78-244.34-49.32-60.74,25.39-138.25,51.68-217,10S94.72,109,32.65,181.62C-36,261.94,7.57,441.05,126.86,422.77Z"/><path class="cls-5" d="M138.63,432C197.16,536.92,298,574.77,366.9,589.78c85.46,18.61,214.22,8.85,298.29-40.81,73.21-43.26,134.17-114.24,163.17-209.43,23.11-75.85,22.23-136.34,7.28-197.13S761.74,4.82,659.07,21.34,527.63,112.52,499.11,163C458.13,235.4,414,250.18,334,238.61s-139.36-9.32-181.23,21.66C119.49,284.87,93.25,350.63,138.63,432Z"/><circle class="cls-6" cx="686.25" cy="202.06" r="76.25"/><circle class="cls-7" cx="411.75" cy="63.9" r="38.13"/><circle class="cls-8" cx="621.44" cy="556.62" r="57.19"/><circle class="cls-9" cx="83.87" cy="583.31" r="19.06"/></g></g></svg>