<svg xmlns="http://www.w3.org/2000/svg" xmlns:xlink="http://www.w3.org/1999/xlink" viewBox="0 0 945.5 793"><defs><style>.cls-1,.cls-3,.cls-4,.cls-5,.cls-6,.cls-7{opacity:0.75;}.cls-2{fill:#374c5f;}.cls-3{fill:url(#Безымянный_градиент_2);}.cls-4{fill:url(#Безымянный_градиент_15);}.cls-5{fill:url(#Безымянный_градиент_15-2);}.cls-6{fill:url(#Безымянный_градиент_14);}.cls-7{fill:url(#Безымянный_градиент_14-2);}.cls-8,.cls-9{opacity:0.5;}.cls-8{fill:url(#Безымянный_градиент_2-2);}.cls-9{fill:url(#Безымянный_градиент_2-3);}</style><linearGradient id="Безымянный_градиент_2" x1="518.5" y1="793" x2="518.5" gradientUnits="userSpaceOnUse"><stop offset="0" stop-color="#546c7e"/><stop offset="1" stop-color="#374c5f"/></linearGradient><linearGradient id="Безымянный_градиент_15" x1="315.47" y1="701.63" x2="315.47" y2="183.13" gradientTransform="translate(241.16 -61.13)" gradientUnits="userSpaceOnUse"><stop offset="0" stop-color="#fceecb"/><stop offset="1" stop-color="#fcf0d1"/></linearGradient><linearGradient id="Безымянный_градиент_15-2" x1="567.8" y1="743.71" x2="621.71" y2="689.79" gradientTransform="matrix(1, 0, 0, 1, 0, 0)" xlink:href="#Безымянный_градиент_15"/><linearGradient id="Безымянный_градиент_14" x1="600.34" y1="97.35" x2="627.3" y2="70.4" gradientUnits="userSpaceOnUse"><stop offset="0" stop-color="#fcf0d1"/><stop offset="1" stop-color="#fceecb"/></linearGradient><linearGradient id="Безымянный_градиент_14-2" x1="434.63" y1="636.69" x2="434.63" y2="179.19" xlink:href="#Безымянный_градиент_14"/><linearGradient id="Безымянный_градиент_2-2" x1="2393.63" y1="-1149.58" x2="2501.46" y2="-1257.42" gradientTransform="translate(3164.3 -807) rotate(180)" xlink:href="#Безымянный_градиент_2"/><linearGradient id="Безымянный_градиент_2-3" x1="133.44" y1="240.19" x2="247.82" y2="240.19" xlink:href="#Безымянный_градиент_2"/></defs><g id="Ebene_2" data-name="Ebene 2"><g id="_Layer_" data-name="&lt;Layer&gt;"><g class="cls-1"><path class="cls-2" d="M691.58,108.28a242,242,0,0,1,64.92,8.8c43.88,12.06,79.23,35.46,105.06,69.55,20.92,27.6,35.75,62.32,44.09,103.2,13.48,66.11,5.94,129.41,3.31,147.23-.05.38-.11.73-.12,1.05h0C894.64,532.81,859.69,604.45,804.94,651c-50.07,42.59-116.46,64.19-197.3,64.19-101.5,0-224.75-34.59-356.41-100-81.28-40.4-151.17-98.63-196.79-164C33,420.5,17.74,389.61,9.19,359.44.58,329.05-.81,301,5.07,275.93,20.6,209.8,84.94,173.38,186.25,173.38c10.32,0,21.16.38,32.21,1.13,22,1.49,43.81,2.25,64.88,2.25,117.23,0,197.72-22.44,268.73-42.24,50.51-14.08,94.13-26.24,139.51-26.24Zm0-1.53c-108,0-205.75,68.48-408.24,68.48-20.49,0-42-.7-64.78-2.24q-16.84-1.14-32.31-1.14c-296.69,0-211.83,307.44,64.3,444.7C376,678.93,500.68,716.75,607.64,716.75c155,0,272.89-79.37,302.69-278.42-.28-.09,47-267.63-153.42-322.72a244,244,0,0,0-65.33-8.86Z"/></g><path class="cls-3" d="M909.39,252.34C840.06,150.53,718.6,134.22,645,144.81s-155.19,5.74-218.13-76.58-176.46-90-238.69-23.76C120.88,116.17,29.26,290.38,151.47,493c77.87,129.08,196.84,213.75,300,257.76S640.9,811,692.3,767.11s21.49-94,11-116.54-26.68-88.91,91.46-112.68C935.43,509.58,986.94,366.22,909.39,252.34Z"/><path class="cls-4" d="M769.73,218.7c-94.11-69.33-205.1-95.15-292.82-96.6s-155,11.91-179.49,58.05,11.8,73.15,26,86.13S368.67,321.84,289.87,373c-93.84,60.89-89.45,177.85,0,236.45,80,52.4,172.85,28.84,223.16,0s110.94-49,180.59-8.65,154.27,13,180.12-52.2C901.7,478.05,917.43,327.52,769.73,218.7Z"/><circle class="cls-5" cx="594.76" cy="716.75" r="38.13"/><circle class="cls-6" cx="613.82" cy="83.87" r="19.06"/><path class="cls-7" d="M649.2,185.83c-108.15-31.1-176.87,57.87-385.81,43C23.55,211.84,81.54,455,286.31,561.54,506.56,676.11,723.06,680.19,759.15,427.88,759,427.8,792.87,227.15,649.2,185.83Z"/><circle class="cls-8" cx="716.76" cy="396.5" r="76.25"/><circle class="cls-9" cx="190.63" cy="240.19" r="57.19"/></g></g></svg>